%TF.GenerationSoftware,KiCad,Pcbnew,10.0.1-10.0.1~ubuntu24.04.1*%
%TF.CreationDate,2026-05-08T04:42:06+02:00*%
%TF.ProjectId,kabot,6b61626f-742e-46b6-9963-61645f706362,rev?*%
%TF.SameCoordinates,Original*%
%TF.FileFunction,Soldermask,Bot*%
%TF.FilePolarity,Negative*%
%FSLAX46Y46*%
G04 Gerber Fmt 4.6, Leading zero omitted, Abs format (unit mm)*
G04 Created by KiCad (PCBNEW 10.0.1-10.0.1~ubuntu24.04.1) date 2026-05-08 04:42:06*
%MOMM*%
%LPD*%
G01*
G04 APERTURE LIST*
G04 Aperture macros list*
%AMFreePoly0*
4,1,23,0.500000,-0.750000,0.000000,-0.750000,0.000000,-0.745722,-0.065263,-0.745722,-0.191342,-0.711940,-0.304381,-0.646677,-0.396677,-0.554381,-0.461940,-0.441342,-0.495722,-0.315263,-0.495722,-0.250000,-0.500000,-0.250000,-0.500000,0.250000,-0.495722,0.250000,-0.495722,0.315263,-0.461940,0.441342,-0.396677,0.554381,-0.304381,0.646677,-0.191342,0.711940,-0.065263,0.745722,0.000000,0.745722,
0.000000,0.750000,0.500000,0.750000,0.500000,-0.750000,0.500000,-0.750000,$1*%
%AMFreePoly1*
4,1,23,0.000000,0.745722,0.065263,0.745722,0.191342,0.711940,0.304381,0.646677,0.396677,0.554381,0.461940,0.441342,0.495722,0.315263,0.495722,0.250000,0.500000,0.250000,0.500000,-0.250000,0.495722,-0.250000,0.495722,-0.315263,0.461940,-0.441342,0.396677,-0.554381,0.304381,-0.646677,0.191342,-0.711940,0.065263,-0.745722,0.000000,-0.745722,0.000000,-0.750000,-0.500000,-0.750000,
-0.500000,0.750000,0.000000,0.750000,0.000000,0.745722,0.000000,0.745722,$1*%
G04 Aperture macros list end*
%ADD10C,3.500000*%
%ADD11C,0.650000*%
%ADD12O,1.100000X2.200000*%
%ADD13O,1.100000X1.900000*%
%ADD14R,1.700000X1.700000*%
%ADD15C,1.700000*%
%ADD16FreePoly0,180.000000*%
%ADD17FreePoly1,180.000000*%
%ADD18FreePoly0,0.000000*%
%ADD19FreePoly1,0.000000*%
G04 APERTURE END LIST*
%TO.C,JP3*%
G36*
X92450000Y-142050000D02*
G01*
X92750000Y-142050000D01*
X92750000Y-143550000D01*
X92450000Y-143550000D01*
X92450000Y-142050000D01*
G37*
%TO.C,JP2*%
G36*
X92450000Y-139450000D02*
G01*
X92750000Y-139450000D01*
X92750000Y-140950000D01*
X92450000Y-140950000D01*
X92450000Y-139450000D01*
G37*
%TD*%
D10*
%TO.C,H4*%
X140000000Y-70000000D03*
%TD*%
D11*
%TO.C,J8*%
X97110000Y-151645000D03*
X102890000Y-151645000D03*
D12*
X95680000Y-151145000D03*
D13*
X95680000Y-155325000D03*
D12*
X104320000Y-151145000D03*
D13*
X104320000Y-155325000D03*
%TD*%
D10*
%TO.C,H6*%
X120000000Y-150000000D03*
%TD*%
%TO.C,H1*%
X60000000Y-70000000D03*
%TD*%
%TO.C,H3*%
X120000000Y-70000000D03*
%TD*%
%TO.C,H8*%
X60000000Y-110000000D03*
%TD*%
%TO.C,H12*%
X140000000Y-130000000D03*
%TD*%
%TO.C,H2*%
X80000000Y-70000000D03*
%TD*%
%TO.C,H7*%
X140000000Y-90000000D03*
%TD*%
%TO.C,H9*%
X80000000Y-150000000D03*
%TD*%
%TO.C,H10*%
X140000000Y-110000000D03*
%TD*%
%TO.C,H11*%
X60000000Y-130000000D03*
%TD*%
D14*
%TO.C,J6*%
X111430000Y-68730000D03*
D15*
X111430000Y-71270000D03*
X108890000Y-68730000D03*
X108890000Y-71270000D03*
X106350000Y-68730000D03*
X106350000Y-71270000D03*
X103810000Y-68730000D03*
X103810000Y-71270000D03*
X101270000Y-68730000D03*
X101270000Y-71270000D03*
X98730000Y-68730000D03*
X98730000Y-71270000D03*
X96190000Y-68730000D03*
X96190000Y-71270000D03*
X93650000Y-68730000D03*
X93650000Y-71270000D03*
X91110000Y-68730000D03*
X91110000Y-71270000D03*
X88570000Y-68730000D03*
X88570000Y-71270000D03*
%TD*%
D16*
%TO.C,JP3*%
X93250000Y-142800000D03*
D17*
X91950000Y-142800000D03*
%TD*%
D18*
%TO.C,JP2*%
X91950000Y-140200000D03*
D19*
X93250000Y-140200000D03*
%TD*%
M02*
