%TF.GenerationSoftware,KiCad,Pcbnew,10.0.1-10.0.1~ubuntu24.04.1*%
%TF.CreationDate,2026-05-08T04:42:06+02:00*%
%TF.ProjectId,kabot,6b61626f-742e-46b6-9963-61645f706362,rev?*%
%TF.SameCoordinates,Original*%
%TF.FileFunction,Paste,Top*%
%TF.FilePolarity,Positive*%
%FSLAX46Y46*%
G04 Gerber Fmt 4.6, Leading zero omitted, Abs format (unit mm)*
G04 Created by KiCad (PCBNEW 10.0.1-10.0.1~ubuntu24.04.1) date 2026-05-08 04:42:06*
%MOMM*%
%LPD*%
G01*
G04 APERTURE LIST*
G04 Aperture macros list*
%AMRoundRect*
0 Rectangle with rounded corners*
0 $1 Rounding radius*
0 $2 $3 $4 $5 $6 $7 $8 $9 X,Y pos of 4 corners*
0 Add a 4 corners polygon primitive as box body*
4,1,4,$2,$3,$4,$5,$6,$7,$8,$9,$2,$3,0*
0 Add four circle primitives for the rounded corners*
1,1,$1+$1,$2,$3*
1,1,$1+$1,$4,$5*
1,1,$1+$1,$6,$7*
1,1,$1+$1,$8,$9*
0 Add four rect primitives between the rounded corners*
20,1,$1+$1,$2,$3,$4,$5,0*
20,1,$1+$1,$4,$5,$6,$7,0*
20,1,$1+$1,$6,$7,$8,$9,0*
20,1,$1+$1,$8,$9,$2,$3,0*%
G04 Aperture macros list end*
%ADD10RoundRect,0.150000X0.200000X-0.150000X0.200000X0.150000X-0.200000X0.150000X-0.200000X-0.150000X0*%
%ADD11RoundRect,0.250000X-0.325000X-0.650000X0.325000X-0.650000X0.325000X0.650000X-0.325000X0.650000X0*%
%ADD12RoundRect,0.250000X-0.650000X0.325000X-0.650000X-0.325000X0.650000X-0.325000X0.650000X0.325000X0*%
%ADD13RoundRect,0.225000X-0.225000X-0.250000X0.225000X-0.250000X0.225000X0.250000X-0.225000X0.250000X0*%
%ADD14RoundRect,0.250000X0.650000X-0.325000X0.650000X0.325000X-0.650000X0.325000X-0.650000X-0.325000X0*%
%ADD15RoundRect,0.225000X0.250000X-0.225000X0.250000X0.225000X-0.250000X0.225000X-0.250000X-0.225000X0*%
%ADD16RoundRect,0.225000X-0.250000X0.225000X-0.250000X-0.225000X0.250000X-0.225000X0.250000X0.225000X0*%
%ADD17RoundRect,0.175000X-1.175000X0.175000X-1.175000X-0.175000X1.175000X-0.175000X1.175000X0.175000X0*%
%ADD18RoundRect,0.250000X-0.700000X0.300000X-0.700000X-0.300000X0.700000X-0.300000X0.700000X0.300000X0*%
%ADD19RoundRect,0.100000X-0.100000X0.637500X-0.100000X-0.637500X0.100000X-0.637500X0.100000X0.637500X0*%
%ADD20RoundRect,0.200000X-0.200000X-0.275000X0.200000X-0.275000X0.200000X0.275000X-0.200000X0.275000X0*%
%ADD21RoundRect,0.225000X0.225000X0.250000X-0.225000X0.250000X-0.225000X-0.250000X0.225000X-0.250000X0*%
%ADD22RoundRect,0.087500X0.225000X0.087500X-0.225000X0.087500X-0.225000X-0.087500X0.225000X-0.087500X0*%
%ADD23RoundRect,0.087500X0.087500X0.225000X-0.087500X0.225000X-0.087500X-0.225000X0.087500X-0.225000X0*%
%ADD24RoundRect,0.200000X-0.275000X0.200000X-0.275000X-0.200000X0.275000X-0.200000X0.275000X0.200000X0*%
%ADD25RoundRect,0.200000X0.275000X-0.200000X0.275000X0.200000X-0.275000X0.200000X-0.275000X-0.200000X0*%
%ADD26R,0.900000X0.800000*%
%ADD27RoundRect,0.150000X-0.150000X-0.425000X0.150000X-0.425000X0.150000X0.425000X-0.150000X0.425000X0*%
%ADD28RoundRect,0.075000X-0.075000X-0.500000X0.075000X-0.500000X0.075000X0.500000X-0.075000X0.500000X0*%
%ADD29O,1.100000X2.200000*%
%ADD30O,1.100000X1.900000*%
%ADD31RoundRect,0.249999X-0.450001X-1.850001X0.450001X-1.850001X0.450001X1.850001X-0.450001X1.850001X0*%
%ADD32RoundRect,0.200000X-0.200000X-0.800000X0.200000X-0.800000X0.200000X0.800000X-0.200000X0.800000X0*%
%ADD33RoundRect,0.150000X-0.587500X-0.150000X0.587500X-0.150000X0.587500X0.150000X-0.587500X0.150000X0*%
%ADD34RoundRect,0.218750X-0.061318X-0.331294X0.317568X-0.112544X0.061318X0.331294X-0.317568X0.112544X0*%
%ADD35RoundRect,0.250000X0.625000X-0.375000X0.625000X0.375000X-0.625000X0.375000X-0.625000X-0.375000X0*%
%ADD36R,1.505000X0.802000*%
%ADD37R,1.567800X2.101200*%
%ADD38RoundRect,0.075000X0.250000X0.075000X-0.250000X0.075000X-0.250000X-0.075000X0.250000X-0.075000X0*%
%ADD39RoundRect,0.200000X0.200000X0.275000X-0.200000X0.275000X-0.200000X-0.275000X0.200000X-0.275000X0*%
%ADD40RoundRect,0.172500X-0.172500X-0.172500X0.172500X-0.172500X0.172500X0.172500X-0.172500X0.172500X0*%
%ADD41RoundRect,0.050000X-0.362500X-0.050000X0.362500X-0.050000X0.362500X0.050000X-0.362500X0.050000X0*%
%ADD42RoundRect,0.050000X-0.050000X-0.362500X0.050000X-0.362500X0.050000X0.362500X-0.050000X0.362500X0*%
%ADD43RoundRect,0.125000X0.125000X-0.537500X0.125000X0.537500X-0.125000X0.537500X-0.125000X-0.537500X0*%
%ADD44R,0.800000X0.900000*%
%ADD45RoundRect,0.175000X1.175000X-0.175000X1.175000X0.175000X-1.175000X0.175000X-1.175000X-0.175000X0*%
%ADD46RoundRect,0.250000X0.700000X-0.300000X0.700000X0.300000X-0.700000X0.300000X-0.700000X-0.300000X0*%
%ADD47RoundRect,0.218750X-0.002858X-0.336909X0.332287X-0.055689X0.002858X0.336909X-0.332287X0.055689X0*%
%ADD48RoundRect,0.175000X0.175000X1.175000X-0.175000X1.175000X-0.175000X-1.175000X0.175000X-1.175000X0*%
%ADD49RoundRect,0.250000X0.300000X0.700000X-0.300000X0.700000X-0.300000X-0.700000X0.300000X-0.700000X0*%
%ADD50RoundRect,0.250000X0.325000X0.650000X-0.325000X0.650000X-0.325000X-0.650000X0.325000X-0.650000X0*%
%ADD51RoundRect,0.250000X-0.625000X0.312500X-0.625000X-0.312500X0.625000X-0.312500X0.625000X0.312500X0*%
%ADD52RoundRect,0.200000X-0.053033X0.335876X-0.335876X0.053033X0.053033X-0.335876X0.335876X-0.053033X0*%
%ADD53RoundRect,0.200000X0.200000X0.800000X-0.200000X0.800000X-0.200000X-0.800000X0.200000X-0.800000X0*%
%ADD54RoundRect,0.200000X-0.008739X0.339924X-0.326080X0.096420X0.008739X-0.339924X0.326080X-0.096420X0*%
%ADD55RoundRect,0.200000X0.029798X0.338729X-0.313069X0.132713X-0.029798X-0.338729X0.313069X-0.132713X0*%
%ADD56RoundRect,0.075000X-0.250000X-0.075000X0.250000X-0.075000X0.250000X0.075000X-0.250000X0.075000X0*%
%ADD57RoundRect,0.250000X0.625000X-0.312500X0.625000X0.312500X-0.625000X0.312500X-0.625000X-0.312500X0*%
%ADD58RoundRect,0.250000X0.375000X0.625000X-0.375000X0.625000X-0.375000X-0.625000X0.375000X-0.625000X0*%
%ADD59RoundRect,0.218750X-0.049719X-0.333232X0.321302X-0.101392X0.049719X0.333232X-0.321302X0.101392X0*%
%ADD60R,1.500000X3.000000*%
%ADD61R,1.500000X4.000000*%
%ADD62RoundRect,0.250000X-0.295000X0.295000X-0.295000X-0.295000X0.295000X-0.295000X0.295000X0.295000X0*%
%ADD63RoundRect,0.062500X-0.062500X0.350000X-0.062500X-0.350000X0.062500X-0.350000X0.062500X0.350000X0*%
%ADD64RoundRect,0.062500X-0.350000X0.062500X-0.350000X-0.062500X0.350000X-0.062500X0.350000X0.062500X0*%
%ADD65RoundRect,0.250000X0.450000X0.350000X-0.450000X0.350000X-0.450000X-0.350000X0.450000X-0.350000X0*%
%ADD66RoundRect,0.182500X0.182500X-0.182500X0.182500X0.182500X-0.182500X0.182500X-0.182500X-0.182500X0*%
%ADD67RoundRect,0.075000X0.075000X-0.312500X0.075000X0.312500X-0.075000X0.312500X-0.075000X-0.312500X0*%
%ADD68RoundRect,0.075000X0.312500X-0.075000X0.312500X0.075000X-0.312500X0.075000X-0.312500X-0.075000X0*%
%ADD69RoundRect,0.200000X0.035705X0.338157X-0.310705X0.138157X-0.035705X-0.338157X0.310705X-0.138157X0*%
%ADD70RoundRect,0.125000X-0.125000X0.537500X-0.125000X-0.537500X0.125000X-0.537500X0.125000X0.537500X0*%
%ADD71R,0.900000X1.500000*%
%ADD72R,1.500000X0.900000*%
%ADD73R,0.900000X0.900000*%
%ADD74R,0.650000X0.750000*%
%ADD75RoundRect,0.062500X-0.062500X0.187500X-0.062500X-0.187500X0.062500X-0.187500X0.062500X0.187500X0*%
%ADD76RoundRect,0.218750X-0.032211X-0.335378X0.326168X-0.084438X0.032211X0.335378X-0.326168X0.084438X0*%
%ADD77RoundRect,0.200000X0.014994X0.339706X-0.318560X0.118931X-0.014994X-0.339706X0.318560X-0.118931X0*%
%ADD78RoundRect,0.150000X0.587500X0.150000X-0.587500X0.150000X-0.587500X-0.150000X0.587500X-0.150000X0*%
%ADD79C,0.250000*%
%ADD80RoundRect,0.375000X0.625000X0.375000X-0.625000X0.375000X-0.625000X-0.375000X0.625000X-0.375000X0*%
%ADD81RoundRect,0.500000X0.500000X1.400000X-0.500000X1.400000X-0.500000X-1.400000X0.500000X-1.400000X0*%
G04 APERTURE END LIST*
D10*
%TO.C,D3*%
X101000000Y-147300000D03*
X101000000Y-148700000D03*
%TD*%
D11*
%TO.C,C4*%
X115025000Y-134250000D03*
X117975000Y-134250000D03*
%TD*%
D12*
%TO.C,C14*%
X96500000Y-123525000D03*
X96500000Y-126475000D03*
%TD*%
D13*
%TO.C,C46*%
X59225000Y-139500000D03*
X60775000Y-139500000D03*
%TD*%
D14*
%TO.C,C12*%
X87700000Y-125575000D03*
X87700000Y-122625000D03*
%TD*%
D13*
%TO.C,C44*%
X107850000Y-130000000D03*
X109400000Y-130000000D03*
%TD*%
D15*
%TO.C,C23*%
X72025000Y-132775000D03*
X72025000Y-131225000D03*
%TD*%
D13*
%TO.C,C43*%
X74225000Y-109500000D03*
X75775000Y-109500000D03*
%TD*%
D11*
%TO.C,C8*%
X115025000Y-139250000D03*
X117975000Y-139250000D03*
%TD*%
D16*
%TO.C,C27*%
X67712500Y-142037500D03*
X67712500Y-143587500D03*
%TD*%
D17*
%TO.C,J102*%
X95650000Y-135750000D03*
X95650000Y-137250000D03*
X95650000Y-138750000D03*
X95650000Y-140250000D03*
X95650000Y-141750000D03*
X95650000Y-143250000D03*
D18*
X91950000Y-133800000D03*
X91950000Y-145200000D03*
%TD*%
D19*
%TO.C,U12*%
X108025000Y-78837500D03*
X107375000Y-78837500D03*
X106725000Y-78837500D03*
X106075000Y-78837500D03*
X105425000Y-78837500D03*
X104775000Y-78837500D03*
X104125000Y-78837500D03*
X103475000Y-78837500D03*
X103475000Y-84562500D03*
X104125000Y-84562500D03*
X104775000Y-84562500D03*
X105425000Y-84562500D03*
X106075000Y-84562500D03*
X106725000Y-84562500D03*
X107375000Y-84562500D03*
X108025000Y-84562500D03*
%TD*%
D20*
%TO.C,R25*%
X72575000Y-73100000D03*
X74225000Y-73100000D03*
%TD*%
D21*
%TO.C,C48*%
X113775000Y-152000000D03*
X112225000Y-152000000D03*
%TD*%
D22*
%TO.C,U10*%
X101162500Y-86800000D03*
X101162500Y-86300000D03*
X101162500Y-85800000D03*
X101162500Y-85300000D03*
D23*
X100500000Y-85137500D03*
X100000000Y-85137500D03*
X99500000Y-85137500D03*
D22*
X98837500Y-85300000D03*
X98837500Y-85800000D03*
X98837500Y-86300000D03*
X98837500Y-86800000D03*
D23*
X99500000Y-86962500D03*
X100000000Y-86962500D03*
X100500000Y-86962500D03*
%TD*%
D24*
%TO.C,R20*%
X112500000Y-125775000D03*
X112500000Y-127425000D03*
%TD*%
D25*
%TO.C,R1*%
X97000000Y-148825000D03*
X97000000Y-147175000D03*
%TD*%
D15*
%TO.C,C33*%
X132500000Y-70750000D03*
X132500000Y-69200000D03*
%TD*%
D26*
%TO.C,D11*%
X124100000Y-106900000D03*
X124100000Y-108100000D03*
X125900000Y-108100000D03*
X125900000Y-106900000D03*
%TD*%
D27*
%TO.C,J8*%
X96800000Y-150570000D03*
X97600000Y-150570000D03*
D28*
X98750000Y-150570000D03*
X99750000Y-150570000D03*
X100250000Y-150570000D03*
X101250000Y-150570000D03*
D27*
X102400000Y-150570000D03*
X103200000Y-150570000D03*
X103200000Y-150570000D03*
X102400000Y-150570000D03*
D28*
X101750000Y-150570000D03*
X100750000Y-150570000D03*
X99250000Y-150570000D03*
X98250000Y-150570000D03*
D27*
X97600000Y-150570000D03*
X96800000Y-150570000D03*
D29*
X95680000Y-151145000D03*
D30*
X95680000Y-155325000D03*
D29*
X104320000Y-151145000D03*
D30*
X104320000Y-155325000D03*
%TD*%
D31*
%TO.C,L1*%
X129398500Y-137711000D03*
X133098500Y-137711000D03*
%TD*%
D32*
%TO.C,SW4*%
X127900000Y-120000000D03*
X132100000Y-120000000D03*
%TD*%
D13*
%TO.C,C18*%
X80725000Y-131250000D03*
X82275000Y-131250000D03*
%TD*%
D16*
%TO.C,C35*%
X67500000Y-69225000D03*
X67500000Y-70775000D03*
%TD*%
D33*
%TO.C,Q1*%
X126311000Y-143121000D03*
X126311000Y-145021000D03*
X128186000Y-144071000D03*
%TD*%
D34*
%TO.C,D13*%
X127318004Y-149893750D03*
X128681996Y-149106250D03*
%TD*%
D10*
%TO.C,D1*%
X95500000Y-147300000D03*
X95500000Y-148700000D03*
%TD*%
D35*
%TO.C,F4*%
X111500000Y-76800000D03*
X111500000Y-74000000D03*
%TD*%
D13*
%TO.C,C26*%
X78725000Y-140000000D03*
X80275000Y-140000000D03*
%TD*%
D21*
%TO.C,C20*%
X64115000Y-100600000D03*
X62565000Y-100600000D03*
%TD*%
D11*
%TO.C,C31*%
X77025000Y-142000000D03*
X79975000Y-142000000D03*
%TD*%
%TO.C,C5*%
X115025000Y-131750000D03*
X117975000Y-131750000D03*
%TD*%
D16*
%TO.C,C29*%
X69462500Y-142037500D03*
X69462500Y-143587500D03*
%TD*%
D26*
%TO.C,D5*%
X57100000Y-119400000D03*
X57100000Y-120600000D03*
X58900000Y-120600000D03*
X58900000Y-119400000D03*
%TD*%
D36*
%TO.C,U5*%
X120066000Y-135306000D03*
X120066000Y-136576000D03*
X120066000Y-137846000D03*
X120066000Y-139116000D03*
X125061000Y-139116000D03*
X125061000Y-137846000D03*
X125061000Y-136576000D03*
X125061000Y-135306000D03*
D37*
X122563500Y-137211000D03*
%TD*%
D38*
%TO.C,U15*%
X130900000Y-70650000D03*
X130900000Y-70000000D03*
X130900000Y-69350000D03*
X129100000Y-69350000D03*
X129100000Y-70000000D03*
X129100000Y-70650000D03*
%TD*%
D13*
%TO.C,C51*%
X124225000Y-109500000D03*
X125775000Y-109500000D03*
%TD*%
D39*
%TO.C,R18*%
X92825000Y-131500000D03*
X91175000Y-131500000D03*
%TD*%
D25*
%TO.C,R7*%
X129063500Y-142786000D03*
X129063500Y-141136000D03*
%TD*%
D40*
%TO.C,U4*%
X99575000Y-124575000D03*
X99575000Y-125425000D03*
X100425000Y-124575000D03*
X100425000Y-125425000D03*
D41*
X98537500Y-124200000D03*
X98537500Y-124600000D03*
X98537500Y-125000000D03*
X98537500Y-125400000D03*
X98537500Y-125800000D03*
D42*
X99200000Y-126462500D03*
X99600000Y-126462500D03*
X100000000Y-126462500D03*
X100400000Y-126462500D03*
X100800000Y-126462500D03*
D41*
X101462500Y-125800000D03*
X101462500Y-125400000D03*
X101462500Y-125000000D03*
X101462500Y-124600000D03*
X101462500Y-124200000D03*
D42*
X100800000Y-123537500D03*
X100400000Y-123537500D03*
X100000000Y-123537500D03*
X99600000Y-123537500D03*
X99200000Y-123537500D03*
%TD*%
D14*
%TO.C,C1*%
X127248500Y-138046000D03*
X127248500Y-135096000D03*
%TD*%
D43*
%TO.C,U17*%
X129759000Y-125250000D03*
X130409000Y-125250000D03*
X131059000Y-125250000D03*
X131709000Y-125250000D03*
X131709000Y-122975000D03*
X131059000Y-122975000D03*
X130409000Y-122975000D03*
X129759000Y-122975000D03*
%TD*%
D44*
%TO.C,D18*%
X72400000Y-70900000D03*
X73600000Y-70900000D03*
X73600000Y-69100000D03*
X72400000Y-69100000D03*
%TD*%
D45*
%TO.C,J5*%
X128100000Y-130950000D03*
X128100000Y-129450000D03*
D46*
X131800000Y-132900000D03*
X131800000Y-127500000D03*
%TD*%
D47*
%TO.C,D16*%
X135543480Y-144506195D03*
X136750000Y-143493805D03*
%TD*%
D13*
%TO.C,C55*%
X57225000Y-78000000D03*
X58775000Y-78000000D03*
%TD*%
D48*
%TO.C,J101*%
X123750000Y-123650000D03*
X122250000Y-123650000D03*
X120750000Y-123650000D03*
X119250000Y-123650000D03*
X117750000Y-123650000D03*
X116250000Y-123650000D03*
D49*
X125700000Y-119950000D03*
X114300000Y-119950000D03*
%TD*%
D50*
%TO.C,C39*%
X65725000Y-105000000D03*
X62775000Y-105000000D03*
%TD*%
D51*
%TO.C,R26*%
X113000000Y-131537500D03*
X113000000Y-134462500D03*
%TD*%
D21*
%TO.C,C34*%
X100775000Y-79550000D03*
X99225000Y-79550000D03*
%TD*%
D26*
%TO.C,D10*%
X141100000Y-119400000D03*
X141100000Y-120600000D03*
X142900000Y-120600000D03*
X142900000Y-119400000D03*
%TD*%
D52*
%TO.C,R8*%
X131383363Y-143116637D03*
X130216637Y-144283363D03*
%TD*%
D13*
%TO.C,C50*%
X141225000Y-122000000D03*
X142775000Y-122000000D03*
%TD*%
D15*
%TO.C,C37*%
X109250000Y-84775000D03*
X109250000Y-83225000D03*
%TD*%
D25*
%TO.C,R22*%
X118500000Y-76075000D03*
X118500000Y-74425000D03*
%TD*%
D26*
%TO.C,D6*%
X59100000Y-136900000D03*
X59100000Y-138100000D03*
X60900000Y-138100000D03*
X60900000Y-136900000D03*
%TD*%
D25*
%TO.C,R28*%
X71200000Y-77025000D03*
X71200000Y-75375000D03*
%TD*%
D16*
%TO.C,C13*%
X120500000Y-130000000D03*
X120500000Y-131550000D03*
%TD*%
D53*
%TO.C,SW1*%
X72100000Y-120000000D03*
X67900000Y-120000000D03*
%TD*%
D54*
%TO.C,R13*%
X134754516Y-143097772D03*
X133445484Y-144102228D03*
%TD*%
D21*
%TO.C,C32*%
X100775000Y-83550000D03*
X99225000Y-83550000D03*
%TD*%
D13*
%TO.C,C52*%
X141225000Y-78000000D03*
X142775000Y-78000000D03*
%TD*%
D55*
%TO.C,R11*%
X129307163Y-146875094D03*
X127892837Y-147724906D03*
%TD*%
D20*
%TO.C,R15*%
X65515000Y-100600000D03*
X67165000Y-100600000D03*
%TD*%
D56*
%TO.C,U16*%
X69100000Y-69350000D03*
X69100000Y-70000000D03*
X69100000Y-70650000D03*
X70900000Y-70650000D03*
X70900000Y-70000000D03*
X70900000Y-69350000D03*
%TD*%
D57*
%TO.C,R23*%
X122500000Y-129662500D03*
X122500000Y-126737500D03*
%TD*%
D39*
%TO.C,R5*%
X135200000Y-120000000D03*
X133550000Y-120000000D03*
%TD*%
D15*
%TO.C,C54*%
X75000000Y-70775000D03*
X75000000Y-69225000D03*
%TD*%
D58*
%TO.C,F3*%
X113900000Y-129250000D03*
X111100000Y-129250000D03*
%TD*%
D59*
%TO.C,D14*%
X130082162Y-148167311D03*
X131417838Y-147332689D03*
%TD*%
D60*
%TO.C,U11*%
X123650000Y-78000000D03*
D61*
X126190000Y-78540000D03*
X128730000Y-78540000D03*
X131270000Y-78540000D03*
X133810000Y-78540000D03*
X136350000Y-78540000D03*
%TD*%
D21*
%TO.C,C38*%
X92775000Y-127000000D03*
X91225000Y-127000000D03*
%TD*%
D35*
%TO.C,F1*%
X125100000Y-129400000D03*
X125100000Y-126600000D03*
%TD*%
D11*
%TO.C,C7*%
X123341000Y-133071000D03*
X126291000Y-133071000D03*
%TD*%
D14*
%TO.C,C10*%
X127750000Y-125700000D03*
X127750000Y-122750000D03*
%TD*%
D62*
%TO.C,U1*%
X75637500Y-137075000D03*
X74287500Y-137075000D03*
X75637500Y-138425000D03*
X74287500Y-138425000D03*
D63*
X76212500Y-135787500D03*
X75712500Y-135787500D03*
X75212500Y-135787500D03*
X74712500Y-135787500D03*
X74212500Y-135787500D03*
X73712500Y-135787500D03*
D64*
X73000000Y-136500000D03*
X73000000Y-137000000D03*
X73000000Y-137500000D03*
X73000000Y-138000000D03*
X73000000Y-138500000D03*
X73000000Y-139000000D03*
D63*
X73712500Y-139712500D03*
X74212500Y-139712500D03*
X74712500Y-139712500D03*
X75212500Y-139712500D03*
X75712500Y-139712500D03*
X76212500Y-139712500D03*
D64*
X76925000Y-139000000D03*
X76925000Y-138500000D03*
X76925000Y-138000000D03*
X76925000Y-137500000D03*
X76925000Y-137000000D03*
X76925000Y-136500000D03*
%TD*%
D50*
%TO.C,C2*%
X124223500Y-141071000D03*
X121273500Y-141071000D03*
%TD*%
D25*
%TO.C,R27*%
X69000000Y-73575000D03*
X69000000Y-71925000D03*
%TD*%
D11*
%TO.C,C11*%
X115050000Y-144250000D03*
X118000000Y-144250000D03*
%TD*%
D65*
%TO.C,Y1*%
X76100000Y-132150000D03*
X73900000Y-132150000D03*
X73900000Y-133850000D03*
X76100000Y-133850000D03*
%TD*%
D35*
%TO.C,F2*%
X85000000Y-129600000D03*
X85000000Y-126800000D03*
%TD*%
D26*
%TO.C,D12*%
X141100000Y-75400000D03*
X141100000Y-76600000D03*
X142900000Y-76600000D03*
X142900000Y-75400000D03*
%TD*%
D25*
%TO.C,R29*%
X69700000Y-77025000D03*
X69700000Y-75375000D03*
%TD*%
D12*
%TO.C,C30*%
X71462500Y-141837500D03*
X71462500Y-144787500D03*
%TD*%
D16*
%TO.C,C53*%
X125000000Y-69225000D03*
X125000000Y-70775000D03*
%TD*%
D66*
%TO.C,U13*%
X67300000Y-139081250D03*
X68200000Y-139081250D03*
X67300000Y-138181250D03*
X68200000Y-138181250D03*
D67*
X67000000Y-140118750D03*
X67500000Y-140118750D03*
X68000000Y-140118750D03*
X68500000Y-140118750D03*
D68*
X69237500Y-139381250D03*
X69237500Y-138881250D03*
X69237500Y-138381250D03*
X69237500Y-137881250D03*
D67*
X68500000Y-137143750D03*
X68000000Y-137143750D03*
X67500000Y-137143750D03*
X67000000Y-137143750D03*
D68*
X66262500Y-137881250D03*
X66262500Y-138381250D03*
X66262500Y-138881250D03*
X66262500Y-139381250D03*
%TD*%
D69*
%TO.C,R9*%
X126728942Y-148475000D03*
X125300000Y-149300000D03*
%TD*%
D70*
%TO.C,U18*%
X111150000Y-131725000D03*
X110500000Y-131725000D03*
X109850000Y-131725000D03*
X109200000Y-131725000D03*
X109200000Y-134000000D03*
X109850000Y-134000000D03*
X110500000Y-134000000D03*
X111150000Y-134000000D03*
%TD*%
D24*
%TO.C,R19*%
X111000000Y-125775000D03*
X111000000Y-127425000D03*
%TD*%
D16*
%TO.C,C19*%
X67340000Y-102125000D03*
X67340000Y-103675000D03*
%TD*%
D39*
%TO.C,R14*%
X92825000Y-128500000D03*
X91175000Y-128500000D03*
%TD*%
D21*
%TO.C,C47*%
X87775000Y-152000000D03*
X86225000Y-152000000D03*
%TD*%
D12*
%TO.C,C28*%
X65712500Y-141837500D03*
X65712500Y-144787500D03*
%TD*%
D71*
%TO.C,U7*%
X63380000Y-98750000D03*
X64650000Y-98750000D03*
X65920000Y-98750000D03*
X67190000Y-98750000D03*
X68460000Y-98750000D03*
X69730000Y-98750000D03*
X71000000Y-98750000D03*
X72270000Y-98750000D03*
X73540000Y-98750000D03*
X74810000Y-98750000D03*
X76080000Y-98750000D03*
X77350000Y-98750000D03*
X78620000Y-98750000D03*
X79890000Y-98750000D03*
D72*
X81140000Y-96985000D03*
X81140000Y-95715000D03*
X81140000Y-94445000D03*
X81140000Y-93175000D03*
X81140000Y-91905000D03*
X81140000Y-90635000D03*
X81140000Y-89365000D03*
X81140000Y-88095000D03*
X81140000Y-86825000D03*
X81140000Y-85555000D03*
X81140000Y-84285000D03*
X81140000Y-83015000D03*
D71*
X79890000Y-81250000D03*
X78620000Y-81250000D03*
X77350000Y-81250000D03*
X76080000Y-81250000D03*
X74810000Y-81250000D03*
X73540000Y-81250000D03*
X72270000Y-81250000D03*
X71000000Y-81250000D03*
X69730000Y-81250000D03*
X68460000Y-81250000D03*
X67190000Y-81250000D03*
X65920000Y-81250000D03*
X64650000Y-81250000D03*
X63380000Y-81250000D03*
D73*
X69700000Y-92900000D03*
X71100000Y-92900000D03*
X72500000Y-92900000D03*
X72500000Y-92900000D03*
X69700000Y-91500000D03*
X69700000Y-91500000D03*
X71100000Y-91500000D03*
X72500000Y-91500000D03*
X69700000Y-90100000D03*
X71100000Y-90100000D03*
X72500000Y-90100000D03*
%TD*%
D44*
%TO.C,D17*%
X127600000Y-69100000D03*
X126400000Y-69100000D03*
X126400000Y-70900000D03*
X127600000Y-70900000D03*
%TD*%
D50*
%TO.C,C40*%
X67675000Y-107500000D03*
X64725000Y-107500000D03*
%TD*%
D74*
%TO.C,U14*%
X120400000Y-127500000D03*
X119600000Y-127500000D03*
D75*
X120750000Y-126550000D03*
X120250000Y-126550000D03*
X119750000Y-126550000D03*
X119250000Y-126550000D03*
X119250000Y-128450000D03*
X119750000Y-128450000D03*
X120250000Y-128450000D03*
X120750000Y-128450000D03*
%TD*%
D50*
%TO.C,C41*%
X67675000Y-110000000D03*
X64725000Y-110000000D03*
%TD*%
D26*
%TO.C,D19*%
X57100000Y-75400000D03*
X57100000Y-76600000D03*
X58900000Y-76600000D03*
X58900000Y-75400000D03*
%TD*%
D16*
%TO.C,C22*%
X78000000Y-133225000D03*
X78000000Y-134775000D03*
%TD*%
D76*
%TO.C,D15*%
X132854918Y-146451691D03*
X134145082Y-145548309D03*
%TD*%
D13*
%TO.C,C49*%
X139225000Y-139500000D03*
X140775000Y-139500000D03*
%TD*%
D32*
%TO.C,SW2*%
X87900000Y-120000000D03*
X92100000Y-120000000D03*
%TD*%
D13*
%TO.C,C24*%
X62975000Y-137131250D03*
X64525000Y-137131250D03*
%TD*%
D39*
%TO.C,R16*%
X92825000Y-130000000D03*
X91175000Y-130000000D03*
%TD*%
D33*
%TO.C,Q3*%
X66812500Y-133681250D03*
X66812500Y-135581250D03*
X68687500Y-134631250D03*
%TD*%
D74*
%TO.C,U6*%
X80400000Y-127500000D03*
X79600000Y-127500000D03*
D75*
X80750000Y-126550000D03*
X80250000Y-126550000D03*
X79750000Y-126550000D03*
X79250000Y-126550000D03*
X79250000Y-128450000D03*
X79750000Y-128450000D03*
X80250000Y-128450000D03*
X80750000Y-128450000D03*
%TD*%
D26*
%TO.C,D4*%
X74100000Y-106900000D03*
X74100000Y-108100000D03*
X75900000Y-108100000D03*
X75900000Y-106900000D03*
%TD*%
D11*
%TO.C,C6*%
X115025000Y-136750000D03*
X117975000Y-136750000D03*
%TD*%
D25*
%TO.C,R3*%
X127248500Y-141396000D03*
X127248500Y-139746000D03*
%TD*%
D24*
%TO.C,R21*%
X114000000Y-125775000D03*
X114000000Y-127425000D03*
%TD*%
D32*
%TO.C,SW3*%
X107900000Y-120000000D03*
X112100000Y-120000000D03*
%TD*%
D50*
%TO.C,C36*%
X101475000Y-81550000D03*
X98525000Y-81550000D03*
%TD*%
D13*
%TO.C,C45*%
X57225000Y-122000000D03*
X58775000Y-122000000D03*
%TD*%
D50*
%TO.C,C21*%
X65715000Y-102600000D03*
X62765000Y-102600000D03*
%TD*%
D48*
%TO.C,J1*%
X83750000Y-123650000D03*
X82250000Y-123650000D03*
X80750000Y-123650000D03*
X79250000Y-123650000D03*
X77750000Y-123650000D03*
X76250000Y-123650000D03*
D49*
X85700000Y-119950000D03*
X74300000Y-119950000D03*
%TD*%
D77*
%TO.C,R12*%
X132000000Y-145100000D03*
X130624088Y-146010696D03*
%TD*%
D20*
%TO.C,R4*%
X119923500Y-133821000D03*
X121573500Y-133821000D03*
%TD*%
D25*
%TO.C,R30*%
X109300000Y-79620000D03*
X109300000Y-77970000D03*
%TD*%
D78*
%TO.C,Q2*%
X64687500Y-135581250D03*
X64687500Y-133681250D03*
X62812500Y-134631250D03*
%TD*%
D57*
%TO.C,R17*%
X82500000Y-129662500D03*
X82500000Y-126737500D03*
%TD*%
D25*
%TO.C,R24*%
X117000000Y-76075000D03*
X117000000Y-74425000D03*
%TD*%
D26*
%TO.C,D7*%
X87900000Y-154600000D03*
X87900000Y-153400000D03*
X86100000Y-153400000D03*
X86100000Y-154600000D03*
%TD*%
D43*
%TO.C,U9*%
X89600000Y-125025000D03*
X90250000Y-125025000D03*
X90900000Y-125025000D03*
X91550000Y-125025000D03*
X91550000Y-122750000D03*
X90900000Y-122750000D03*
X90250000Y-122750000D03*
X89600000Y-122750000D03*
%TD*%
D24*
%TO.C,R10*%
X124498500Y-143246000D03*
X124498500Y-144896000D03*
%TD*%
D13*
%TO.C,C25*%
X78725000Y-138500000D03*
X80275000Y-138500000D03*
%TD*%
D10*
%TO.C,D2*%
X98500000Y-147300000D03*
X98500000Y-148700000D03*
%TD*%
D25*
%TO.C,R2*%
X102500000Y-148825000D03*
X102500000Y-147175000D03*
%TD*%
D79*
%TO.C,U8*%
X99800000Y-77500000D03*
X99800000Y-77100000D03*
X100200000Y-77500000D03*
X100200000Y-77100000D03*
%TD*%
D15*
%TO.C,C42*%
X133274000Y-124887500D03*
X133274000Y-123337500D03*
%TD*%
D80*
%TO.C,U2*%
X112900000Y-141300000D03*
X112900000Y-139000000D03*
D81*
X106600000Y-139000000D03*
D80*
X112900000Y-136700000D03*
%TD*%
D26*
%TO.C,D9*%
X139100000Y-136900000D03*
X139100000Y-138100000D03*
X140900000Y-138100000D03*
X140900000Y-136900000D03*
%TD*%
D11*
%TO.C,C9*%
X115025000Y-141750000D03*
X117975000Y-141750000D03*
%TD*%
D26*
%TO.C,D8*%
X113900000Y-154600000D03*
X113900000Y-153400000D03*
X112100000Y-153400000D03*
X112100000Y-154600000D03*
%TD*%
M02*
