M48
; DRILL file KiCad 10.0.1-10.0.1~ubuntu24.04.1 date 2026-05-08T04:42:06
; FORMAT={-:-/ absolute / inch / decimal}
; #@! TF.CreationDate,2026-05-08T04:42:06+02:00
; #@! TF.GenerationSoftware,Kicad,Pcbnew,10.0.1-10.0.1~ubuntu24.04.1
; #@! TF.FileFunction,Plated,1,2,PTH
FMAT,2
INCH
; #@! TA.AperFunction,Plated,PTH,ViaDrill
T1C0.0118
; #@! TA.AperFunction,Plated,PTH,ComponentDrill
T2C0.0236
; #@! TA.AperFunction,Plated,PTH,ComponentDrill
T3C0.0394
%
G90
G05
T1
X2.252Y-5.2362
X2.2559Y-2.8425
X2.2559Y-5.0157
X2.2677Y-4.1102
X2.2953Y-4.5079
X2.3622Y-2.9724
X2.3622Y-3.0709
X2.3622Y-4.7047
X2.3622Y-4.8031
X2.4409Y-5.3937
X2.4409Y-5.4921
X2.4764Y-2.6575
X2.4961Y-3.252
X2.5Y-4.9134
X2.5197Y-3.0157
X2.5197Y-4.1339
X2.5197Y-4.5551
X2.5394Y-3.7165
X2.5394Y-5.437
X2.5433Y-5.0827
X2.5709Y-2.9134
X2.5827Y-3.3583
X2.5866Y-5.6575
X2.6142Y-2.6772
X2.6142Y-3.5118
X2.6181Y-4.252
X2.6204Y-4.3881
X2.6378Y-5.5669
X2.6433Y-4.122
X2.6452Y-5.4377
X2.6452Y-5.4811
X2.6457Y-3.1378
X2.6575Y-2.8307
X2.6634Y-5.128
X2.6673Y-5.4589
X2.6772Y-4.1535
X2.6885Y-5.4377
X2.6885Y-5.4811
X2.6969Y-3.1378
X2.7008Y-4.1208
X2.7008Y-5.6772
X2.7224Y-4.0843
X2.7244Y-5.3976
X2.7244Y-5.5433
X2.7441Y-3.5748
X2.7441Y-3.6299
X2.7453Y-4.1029
X2.7638Y-4.126
X2.7677Y-5.4685
X2.7717Y-3.5472
X2.7717Y-3.6024
X2.7717Y-3.6575
X2.7825Y-5.3683
X2.7862Y-2.8142
X2.7947Y-5.4935
X2.7953Y-2.6969
X2.7953Y-2.874
X2.7953Y-5.128
X2.7992Y-3.3543
X2.7992Y-3.5748
X2.7992Y-3.6299
X2.8143Y-5.3691
X2.815Y-3.7913
X2.815Y-5.6575
X2.8179Y-4.8307
X2.8242Y-5.4952
X2.8248Y-2.874
X2.8268Y-3.5472
X2.8268Y-3.6024
X2.8268Y-3.6575
X2.8543Y-2.6772
X2.8543Y-3.5748
X2.8543Y-3.6299
X2.8574Y-4.6141
X2.8583Y-4.374
X2.874Y-4.252
X2.8858Y-4.9449
X2.9094Y-5.1575
X2.9134Y-5.3858
X2.9134Y-5.4252
X2.9134Y-5.4606
X2.9409Y-3.374
X2.9488Y-5.3898
X2.9488Y-5.4606
X2.9508Y-5.4232
X2.9528Y-2.6772
X2.9646Y-4.7244
X2.9803Y-5.0315
X2.9843Y-5.4252
X2.9843Y-5.4567
X2.9882Y-5.3858
X3.0157Y-3.685
X3.0315Y-4.2126
X3.0315Y-4.311
X3.0315Y-5.6407
X3.0315Y-5.748
X3.0575Y-4.0783
X3.0591Y-2.6339
X3.063Y-4.7913
X3.083Y-5.1454
X3.1092Y-4.064
X3.1102Y-5.3051
X3.1107Y-5.2622
X3.1299Y-5.0197
X3.1378Y-4.1535
X3.1457Y-3.1417
X3.1604Y-5.4823
X3.1693Y-5.0197
X3.2244Y-5.0315
X3.2539Y-3.0246
X3.2755Y-3.0039
X3.2776Y-5.1673
X3.3233Y-3.7682
X3.3268Y-4.7165
X3.3307Y-2.6614
X3.3425Y-4.9449
X3.3465Y-5.9843
X3.3465Y-6.0394
X3.3465Y-6.0827
X3.3536Y-2.8812
X3.3543Y-3.8189
X3.3711Y-2.8574
X3.3976Y-3.9252
X3.4213Y-4.0827
X3.4528Y-4.8701
X3.4685Y-5.3858
X3.4699Y-3.1982
X3.4833Y-3.1719
X3.4882Y-6.1417
X3.4921Y-3.7441
X3.4961Y-5.6693
X3.4961Y-5.7835
X3.5315Y-5.3858
X3.5531Y-5.1545
X3.563Y-5.2677
X3.5709Y-4.2756
X3.5984Y-3.3386
X3.5984Y-3.5591
X3.6181Y-5.622
X3.622Y-5.5197
X3.6265Y-4.8804
X3.6614Y-4.7244
X3.6693Y-5.5157
X3.6693Y-5.6181
X3.6772Y-5.7165
X3.6811Y-4.4016
X3.685Y-3.2559
X3.689Y-5.0
X3.7008Y-5.2067
X3.7133Y-3.044
X3.75Y-3.0356
X3.7717Y-5.0492
X3.7756Y-3.3543
X3.7835Y-3.0945
X3.7963Y-3.4449
X3.7992Y-3.0676
X3.7992Y-5.0197
X3.8189Y-5.7579
X3.8346Y-5.1181
X3.8386Y-5.3465
X3.8789Y-4.7018
X3.8819Y-4.8248
X3.8898Y-5.3976
X3.8912Y-3.3332
X3.9016Y-4.8012
X3.9054Y-4.6883
X3.9173Y-4.9016
X3.9173Y-4.9409
X3.9179Y-3.4657
X3.9272Y-3.2087
X3.9528Y-5.4724
X3.9567Y-4.9016
X3.9567Y-4.9409
X3.9606Y-5.1457
X3.9724Y-4.4961
X3.9764Y-3.3268
X3.9862Y-3.4449
X4.0047Y-4.8634
X4.0079Y-4.685
X4.0107Y-3.3454
X4.0157Y-4.9744
X4.0354Y-5.2638
X4.0354Y-5.7579
X4.0453Y-4.9744
X4.065Y-3.0512
X4.0748Y-4.9744
X4.0748Y-5.6339
X4.1043Y-5.2067
X4.1063Y-3.4252
X4.1063Y-5.3543
X4.1535Y-4.6811
X4.1614Y-4.8543
X4.1765Y-5.7632
X4.1772Y-3.3976
X4.1772Y-5.0157
X4.1811Y-4.3819
X4.1928Y-3.15
X4.1929Y-3.2795
X4.1969Y-3.5472
X4.2032Y-5.1177
X4.2047Y-3.4567
X4.2224Y-3.1791
X4.2224Y-3.2776
X4.2224Y-5.2362
X4.2244Y-5.8071
X4.252Y-5.6654
X4.2559Y-3.1575
X4.2598Y-3.5984
X4.2717Y-5.9646
X4.2943Y-4.2874
X4.2943Y-4.3169
X4.3012Y-3.2382
X4.3031Y-3.7047
X4.3071Y-5.0787
X4.3098Y-2.9203
X4.3189Y-5.3976
X4.3209Y-4.1929
X4.3258Y-4.4685
X4.3265Y-3.5295
X4.3268Y-5.5591
X4.3278Y-3.5
X4.3307Y-2.9429
X4.3307Y-4.6654
X4.3622Y-5.874
X4.3701Y-5.9843
X4.3701Y-6.0394
X4.3701Y-6.0827
X4.374Y-4.7244
X4.3854Y-4.623
X4.4104Y-4.5965
X4.4222Y-4.2835
X4.4222Y-4.313
X4.4242Y-4.1929
X4.439Y-5.6201
X4.4488Y-3.2323
X4.4528Y-3.1063
X4.4557Y-3.5
X4.4557Y-3.5295
X4.4587Y-2.6969
X4.4803Y-5.7165
X4.4803Y-5.7992
X4.5354Y-6.1063
X4.5394Y-2.9232
X4.5394Y-2.9528
X4.5433Y-4.7244
X4.5669Y-3.0748
X4.5669Y-4.2913
X4.5827Y-5.4803
X4.5906Y-2.7126
X4.5984Y-3.1457
X4.6142Y-5.126
X4.6339Y-3.8071
X4.6378Y-4.7953
X4.647Y-5.337
X4.647Y-5.527
X4.647Y-5.627
X4.6575Y-5.7539
X4.6693Y-2.6417
X4.6929Y-5.2992
X4.7008Y-3.5906
X4.7047Y-5.0197
X4.7087Y-5.7953
X4.7165Y-3.1929
X4.7215Y-5.6879
X4.7244Y-5.5906
X4.7441Y-4.252
X4.7441Y-5.0197
X4.752Y-4.0157
X4.776Y-5.0761
X4.7874Y-5.1772
X4.7874Y-5.3465
X4.7874Y-5.4016
X4.7874Y-5.4567
X4.7913Y-3.0787
X4.7933Y-5.2165
X4.815Y-5.8386
X4.8248Y-5.3465
X4.8253Y-5.402
X4.8253Y-5.4567
X4.8378Y-2.8398
X4.8543Y-5.7047
X4.8583Y-5.9055
X4.8622Y-5.3465
X4.8622Y-5.4016
X4.8622Y-5.4567
X4.9094Y-3.5669
X4.9094Y-4.7205
X4.9173Y-4.9055
X4.9213Y-2.8346
X4.9213Y-2.8711
X4.9409Y-5.9488
X4.9705Y-3.189
X4.9803Y-2.8346
X4.9803Y-5.937
X5.0Y-2.7559
X5.0Y-4.2126
X5.0Y-4.311
X5.0138Y-5.065
X5.0197Y-2.8346
X5.0276Y-4.874
X5.0276Y-5.25
X5.0433Y-5.065
X5.0583Y-2.7126
X5.0709Y-4.7244
X5.0728Y-5.065
X5.0945Y-5.7382
X5.1142Y-5.0669
X5.1142Y-5.0965
X5.1437Y-5.0965
X5.1772Y-5.187
X5.187Y-5.0689
X5.1929Y-5.5906
X5.1969Y-5.122
X5.201Y-5.7846
X5.2165Y-2.689
X5.2194Y-4.8834
X5.2441Y-5.7087
X5.2598Y-2.7165
X5.3031Y-4.0591
X5.3031Y-4.5315
X5.3465Y-3.4921
X5.3543Y-5.0197
X5.3819Y-2.6929
X5.3858Y-5.1181
X5.4055Y-3.7795
X5.4252Y-5.6299
X5.4409Y-5.3898
X5.5Y-4.5276
X5.5039Y-3.9882
X5.5118Y-5.5315
X5.5433Y-3.2992
X5.5709Y-4.937
X5.5906Y-5.3937
X5.622Y-3.1142
X5.6299Y-2.9331
X5.6299Y-4.6654
X5.6299Y-4.8425
T3
X3.487Y-2.7059
X3.487Y-2.8059
X3.587Y-2.7059
X3.587Y-2.8059
X3.687Y-2.7059
X3.687Y-2.8059
X3.787Y-2.7059
X3.787Y-2.8059
X3.887Y-2.7059
X3.887Y-2.8059
X3.987Y-2.7059
X3.987Y-2.8059
X4.087Y-2.7059
X4.087Y-2.8059
X4.187Y-2.7059
X4.187Y-2.8059
X4.287Y-2.7059
X4.287Y-2.8059
X4.387Y-2.7059
X4.387Y-2.8059
T2
G00X3.7669Y-5.9289
M15
G01X3.7669Y-5.9722
M16
G05
G00X3.7669Y-6.0994
M15
G01X3.7669Y-6.1309
M16
G05
G00X4.1071Y-5.9289
M15
G01X4.1071Y-5.9722
M16
G05
G00X4.1071Y-6.0994
M15
G01X4.1071Y-6.1309
M16
G05
M30
